<svg version="1.2" xmlns="http://www.w3.org/2000/svg" viewBox="0 0 1968 1337" width="1968" height="1337">
	<title>logo-svg</title>
	<style>
		.s0 { fill: #30b17e } 
	</style>
	<path id="Layer" class="s0" d="m44 44l4 1 10 6 76 38 18 8 32 14 39 16 40 15 37 13 43 14 58 17 54 14 59 14 57 12 53 10 53 9 54 8 62 8 78 8 79 6 82 4 65 2h69l76-2 61-3 57-4 81-8 70-9 67-11 70-14 50-12 48-13 39-12 36-12 39-14 20-8 30-13 11-5 4 1 1 54-1 756-5-1-19-8-13-5-2-6-1-266v-101l1-350 1-19-27 13-32 13-40 15-56 19-49 15-54 15-46 12-69 16-62 13-72 14-64 11-58 9-55 8-79 10-72 8-84 8-85 6-52 3-82 3h-168l-81-3-65-4-54-5-37-4-58-8-60-11-49-11-35-9-41-12-44-15-12-5-2-4v-247z"/>
	<path id="Layer" class="s0" d="m44 375l9 2 24 9 5 4v739l31-14 42-17 41-15 38-13 46-14 46-13 54-14 41-10 63-14 64-13 71-13 73-12 69-10 61-8 67-8 81-8 78-6 64-4 73-3 30-1 56-1h67l53 1 75 3 64 4 49 4 54 6 50 7 46 8 48 10 55 14 39 12 41 14 12 6 1 1v276l-5-2-14-9-29-15-27-14-28-13-34-15-39-16-29-11-44-16-52-17-59-17-62-16-52-12-42-9-52-10-40-7-50-8-57-8-69-8-78-7-63-4-64-3-30-1-48-1h-56l-55 1-72 3-83 6-77 8-67 9-60 10-55 11-39 9-40 10-49 14-29 9-43 15-39 15-31 13-15 7-4-1z"/>
	<path id="Layer" fill-rule="evenodd" class="s0" d="m1049 564h12l16 3 15 6 11 8 9 9 8 13 8 18 4 17 2 15v26l-2 17-4 16-7 17-10 15-11 12-11 9-12 6-14 4-6 1h-19l-12-3-15-8-12-9 1 64v28l-2 1h-50l-1-1-1-33v-189l1-56 1-1 42 1 2 7 1 13 6-3 14-10 16-8 13-4zm-17 44l-13 5-11 8-5 4-3 5-1 23v59l3 9 8 5 16 6 4 1h14l10-4 8-6 5-5 5-7 5-16 2-11v-35l-4-16-5-10-8-9-10-5-4-1z"/>
	<path id="Layer" fill-rule="evenodd" class="s0" d="m332 504l99 1 24 2 17 4 19 9 14 11 9 13 4 8 4 12 2 11v24l-3 16-6 15-10 15-11 11-14 8-14 6-21 4-18 2h-42v94l-1 1-49 1-3-2zm53 42v88h46l16-4 9-5 9-9 4-8 3-16v-8l-4-17-6-8-7-6-11-4-16-2-20-1z"/>
	<path id="Layer" fill-rule="evenodd" class="s0" d="m801 564l19 1 17 4 14 6 12 8 12 11 9 11 7 12 7 18 4 19v34l-4 19-6 15-8 14-8 10-9 9-13 9-11 5-15 5-11 2h-26l-18-4-12-5-12-8-10-9-7-7-9-14-8-17-4-14-2-12-1-13v-10l3-21 6-18 8-16 10-13 9-9 13-9 14-7 15-4zm-6 44l-12 6-7 7-8 14-4 15-2 15v16l3 17 5 13 7 10 8 7 8 4 15 2 10-2 12-7 9-10 5-12 4-17v-29l-3-16-6-14-7-9-7-6-11-4z"/>
	<path id="Layer" fill-rule="evenodd" class="s0" d="m1255 564h13l14 2 18 6 11 7 11 10 9 13 6 12 5 15 3 19v33l-4 4h-123l3 13 8 16 8 9 11 7 11 4 7 1h16l15-3 12-5 7-3 5 1 5 8 8 13 2 6v4l-17 9-24 8-16 3h-29l-18-4-16-7-12-8-15-15-10-16-6-14-4-13-2-12v-29l3-17 5-16 8-16 8-11 9-10 10-8 16-9 16-5zm2 41l-12 3-8 5-7 6-8 13-5 14 1 3 4 1h76l3-2-1-9-4-12-7-12-8-6-9-3-6-1z"/>
	<path id="Layer" class="s0" d="m1559 564h18l21 4 16 6 16 9 6 5-1 4-14 20-4 7-4 1-15-8-16-6-5-1h-16l-12 6-4 5-1 3v9l4 6 11 7 43 18 16 9 10 9 7 10 5 13 1 5v16l-4 14-7 12-9 10-7 6-14 7-18 5-7 1h-27l-20-4-19-7-15-8-8-6-1-5 14-20 6-8 5-1 14 8 12 6 13 4 6 1h15l10-3 8-7 3-6-1-9-4-6-7-6-10-5-34-14-16-9-12-11-6-7-5-10-3-12v-11l4-15 6-12 11-12 11-7 11-5 16-4z"/>
	<path id="Layer" class="s0" d="m1390 483h50l2 1v224l1 19 1 3 14 4 3 3 4 24v10l-2 3-13 2h-22l-12-3-8-5-5-4-6-9-6-14-2-10-1-41v-117l1-89z"/>
	<path id="Layer" class="s0" d="m663 565h25l8 2 1 1-1 11-6 30-2 6-13-3h-14l-13 5-11 8-9 12-5 10-1 3-1 68v52l-1 1-50 1-2-2v-200l1-1 42 1 1 1 1 18v10l1 3 4-2 9-10 7-8 10-8 12-7z"/>
</svg>